HIERARCHY
ROOT Hips
{
  OFFSET -31.5692 30.0904 122.763
  CHANNELS 6 Xposition Yposition Zposition Zrotation Xrotation Yrotation
  JOINT LeftUpLeg
  {
    OFFSET 8.64259 1.95398 -2.38835
    CHANNELS 3 Zrotation Xrotation Yrotation
    JOINT LeftLeg
    {
      OFFSET 43.7702 0 0
      CHANNELS 3 Zrotation Xrotation Yrotation
      JOINT LeftFoot
      {
        OFFSET 40.6238 0 0
        CHANNELS 3 Zrotation Xrotation Yrotation
        JOINT LeftToeBase
        {
          OFFSET 12.7242 0 0
          CHANNELS 3 Zrotation Xrotation Yrotation
          End Site
          {
            OFFSET 0 0 0
          }
        }
      }
    }
  }
  JOINT RightUpLeg
  {
    OFFSET -8.2249 1.95398 -2.59336
    CHANNELS 3 Zrotation Xrotation Yrotation
    JOINT RightLeg
    {
      OFFSET 43.5653 0 0
      CHANNELS 3 Zrotation Xrotation Yrotation
      JOINT RightFoot
      {
        OFFSET 40.6238 0 0
        CHANNELS 3 Zrotation Xrotation Yrotation
        JOINT RightToeBase
        {
          OFFSET 12.7242 0 0
          CHANNELS 3 Zrotation Xrotation Yrotation
          End Site
          {
            OFFSET 0 0 0
          }
        }
      }
    }
  }
  JOINT Spine
  {
    OFFSET 0.165834 0.87714 6.61349
    CHANNELS 3 Zrotation Xrotation Yrotation
    JOINT Spine1
    {
      OFFSET 7.38963 1.71661e-005 0
      CHANNELS 3 Zrotation Xrotation Yrotation
      JOINT Spine2
      {
        OFFSET 11.9445 1.14441e-005 0
        CHANNELS 3 Zrotation Xrotation Yrotation
        JOINT Spine3
        {
          OFFSET 14.7254 4.19617e-005 0
          CHANNELS 3 Zrotation Xrotation Yrotation
          JOINT Spine4
          {
            OFFSET 10.9679 0 0
            CHANNELS 3 Zrotation Xrotation Yrotation
            JOINT RightShoulder
            {
              OFFSET 2.46616 -1.6653 3.69651
              CHANNELS 3 Zrotation Xrotation Yrotation
              JOINT RightArm
              {
                OFFSET 13.0012 0 0
                CHANNELS 3 Zrotation Xrotation Yrotation
                JOINT RightForeArm
                {
                  OFFSET 28.7848 1.62311e-005 0
                  CHANNELS 3 Zrotation Xrotation Yrotation
                  JOINT RightHand
                  {
                    OFFSET 26.5688 1.62095e-005 0
                    CHANNELS 3 Zrotation Xrotation Yrotation
                    End Site
                    {
                      OFFSET 0 0 0
                    }
                  }
                }
              }
            }
            JOINT LeftShoulder
            {
              OFFSET 2.38034 -1.29275 -3.7523
              CHANNELS 3 Zrotation Xrotation Yrotation
              JOINT LeftArm
              {
                OFFSET 16.3182 6.07031e-005 0
                CHANNELS 3 Zrotation Xrotation Yrotation
                JOINT LeftForeArm
                {
                  OFFSET 27.0901 0 0
                  CHANNELS 3 Zrotation Xrotation Yrotation
                  JOINT LeftHand
                  {
                    OFFSET 24.5451 1.51738e-005 0
                    CHANNELS 3 Zrotation Xrotation Yrotation
                    End Site
                    {
                      OFFSET 0 0 0
                    }
                  }
                }
              }
            }
            JOINT Neck
            {
              OFFSET 5.0226 -0.0266342 0
              CHANNELS 3 Zrotation Xrotation Yrotation
              JOINT Head
              {
                OFFSET 6.69364 2.86102e-005 0
                CHANNELS 3 Zrotation Xrotation Yrotation
                End Site
                {
                  OFFSET 0 0 0
                }
              }
            }
          }
        }
      }
    }
  }
}
MOTION
Frames:	9
Frame Time:	0.0416667
30.8832 45.1293 8.56741 -68.7861 -83.6533 -68.0894 1.07518 80.8465 -53.2122 -133.599 3.60209 6.30202 93.1165 19.4694 0.478505 30.2916 -2.53711 9.9458 23.7511 79.09 -142.155 -136.605 -15.1603 -5.73219 86.6315 -20.5366 -6.55055 32.4498 -1.74117 0.24815 0.860428 13.2741 -90.2984 0.327615 1.60524 -0.50896 -11.3425 1.58128 -0.57914 -33.8856 1.68396 -0.00286907 -13.8729 1.68396 -0.00287201 86.8125 -21.6373 -117.493 13.4904 -3.49668 -51.0088 6.79326 -53.3825 -11.78 -42.0677 -8.57813 13.4541 -94.9656 -37.4891 67.1595 -9.00178 7.53888 -70.8301 -3.20941 51.1691 0.00558601 20.2523 2.15562 3.79947 48.502 -1.2163 0.362586 -6.15688 -1.32407 -0.418939 
30.6809 45.1757 8.43373 -66.235 -82.6843 -64.6453 9.82043 80.1144 -61.1251 -133.719 4.0519 6.13962 92.7944 19.3753 0.465563 30.3673 -2.65379 10.4136 29.1785 77.8556 -146.489 -136.269 -14.641 -5.78444 86.7285 -20.3837 -6.41518 32.1904 -1.60046 0.116105 0.999543 13.2069 -90.3529 0.462918 1.86215 -0.606945 -11.2069 1.83365 -0.688326 -33.7528 1.95845 -0.0190247 -13.7401 1.95845 -0.0190068 86.8418 -21.3848 -117.583 13.0973 -3.60622 -50.9904 7.04696 -52.9821 -11.6905 -41.4851 -8.6027 13.9579 -94.9156 -37.4439 67.2265 -9.38864 7.39559 -70.942 -3.0278 52.1367 0.00570655 20.0337 1.96641 2.87355 48.2738 -0.876749 1.16018 -5.5171 -1.43605 -1.50067 
30.7289 45.2082 8.41011 -65.693 -82.64 -64.0493 9.97534 80.0482 -61.2582 -133.543 3.93404 6.15533 93.0464 19.5274 0.28084 30.2378 -2.75832 10.4631 28.9625 77.8068 -146.288 -136.204 -14.7953 -5.78601 86.5772 -20.2606 -6.36261 32.2914 -1.6567 0.175642 1.00441 13.218 -90.3611 0.440787 1.86888 -0.62208 -11.229 1.8397 -0.703766 -33.7749 1.9694 -0.0314387 -13.7623 1.96942 -0.0314274 86.974 -21.3249 -117.33 13.7087 -3.31303 -51.1033 6.36998 -52.8067 -12.0269 -41.0502 -8.31976 13.4084 -94.9261 -37.4302 67.2035 -9.37808 7.22903 -71.085 -2.96278 52.7585 0.00578769 21.4094 1.78344 2.26343 48.581 -0.976326 0.834227 -5.94372 -1.35995 -0.856126 
30.7499 45.1818 8.41903 -66.2953 -82.6067 -64.7114 9.31026 79.9772 -60.5391 -133.611 3.90093 6.15616 92.1853 19.1985 1.0726 29.2176 -1.62879 5.53578 28.6007 77.8951 -145.868 -136.252 -14.8315 -5.78179 86.6165 -20.3198 -6.41957 32.1005 -1.56206 0.134063 0.989651 13.2316 -90.3593 0.413589 1.84016 -0.619104 -11.2562 1.81113 -0.699509 -33.8018 1.94112 -0.0372285 -13.7892 1.94112 -0.0372312 86.967 -21.2883 -117.368 13.0582 -3.58262 -51.3027 6.84874 -53.1434 -11.9007 -41.8678 -8.68563 13.942 -94.9504 -37.7261 67.2757 -9.14471 7.16115 -71.1874 -3.14092 52.508 0.00575463 20.48 1.83909 2.38129 48.7534 -0.829589 0.890343 -6.28139 -1.25294 -0.858756 
30.7004 45.0725 8.43495 -66.0183 -82.6702 -64.5418 9.32291 79.9547 -60.5415 -133.666 3.92027 6.17847 93.1316 19.6095 0.249853 29.7543 -2.92104 10.1407 27.6918 77.8341 -144.874 -136.412 -14.5792 -5.76557 86.6089 -20.2883 -6.41285 32.3506 -1.67201 0.103211 0.992343 13.2145 -90.3547 0.447774 1.84719 -0.610675 -11.2221 1.81853 -0.691404 -33.7677 1.9453 -0.0270917 -13.7551 1.9453 -0.0270799 87.1499 -21.216 -117.009 13.9374 -3.49142 -51.3712 6.50408 -53.6348 -11.887 -42.0218 -8.69506 13.7988 -94.9205 -37.6191 67.2853 -9.17362 7.28092 -71.1556 -3.12617 52.586 0.00576488 19.8043 1.95728 2.81913 48.2831 -0.858614 1.1665 -5.81131 -1.42439 -1.31634 
30.6855 44.955 8.48592 -66.0738 -82.7531 -64.695 9.05022 79.9398 -60.3606 -133.864 3.86989 6.18044 92.9584 19.4548 0.396111 29.7153 -2.70741 9.46813 26.8353 77.8698 -144.1 -136.607 -14.5271 -5.74904 86.6706 -20.3098 -6.37026 32.2883 -1.64095 0.08862 0.980153 13.1851 -90.3458 0.506416 1.82606 -0.595908 -11.1634 1.79807 -0.675721 -33.7089 1.92071 -0.0193412 -13.6962 1.92071 -0.0193542 87.0502 -21.4146 -117.108 13.5602 -3.71913 -51.1436 6.62747 -53.4275 -12.0101 -41.743 -8.63079 13.8151 -94.8969 -37.7186 67.3631 -9.26411 7.37723 -71.026 -3.22327 52.7168 0.00578215 20.114 1.9931 3.03139 48.2499 -0.973644 0.932956 -6.08645 -1.4058 -0.979751 
30.735 44.9297 8.52553 -66.2034 -82.8606 -64.883 8.79604 80.0366 -60.1163 -133.866 4.05776 6.1779 93.5472 19.7269 -0.132159 30.3016 -3.43772 12.5535 26.1611 78.0139 -143.586 -136.676 -14.7489 -5.76688 86.6514 -20.3333 -6.44253 32.4124 -1.68732 0.0234397 0.967001 13.1914 -90.3634 0.493987 1.79331 -0.631161 -11.1759 1.76379 -0.709503 -33.721 1.90007 -0.0628232 -13.7083 1.90007 -0.0628383 87.1729 -21.174 -116.984 14.1051 -3.5518 -51.0528 6.0748 -53.4891 -12.3358 -41.1312 -8.3848 13.4703 -94.8963 -37.8263 67.4051 -9.07067 7.55359 -71.2978 -3.32785 52.2557 0.00572185 20.0578 2.03333 3.16614 48.2473 -0.879514 1.39124 -5.61069 -1.56687 -1.54973 
30.7074 44.9017 8.48463 -66.5135 -82.6769 -65.1638 9.28614 79.9638 -60.5266 -133.853 4.06588 6.19219 93.5113 19.7712 -0.0505382 30.3573 -3.49656 12.8289 26.2 77.8486 -143.347 -136.645 -14.6678 -5.76772 86.5417 -20.2771 -6.48739 32.3973 -1.67983 0.0196124 0.988437 13.1884 -90.3444 0.499786 1.84318 -0.59222 -11.17 1.81534 -0.672796 -33.7157 1.93593 -0.0106984 -13.703 1.93593 -0.0106948 87.1486 -21.2437 -116.995 14.1057 -3.56886 -51.1384 6.12164 -53.6542 -12.2937 -41.6461 -8.58078 13.7035 -94.7945 -37.643 67.5071 -9.11679 7.57122 -71.3522 -3.32043 52.3732 0.00573706 20.1391 2.07331 3.39062 48.7067 -1.14224 0.765933 -6.25114 -1.47713 -0.695746 
30.7321 44.9267 8.4896 -66.7811 -82.6632 -65.2453 10.286 79.8692 -61.5357 -134.058 3.80719 6.11587 92.7445 19.2524 0.391885 30.7579 -2.49742 10.639 27.6299 77.7918 -144.865 -136.594 -14.4956 -5.77875 86.7576 -20.3211 -6.365 32.3287 -1.69203 0.286906 0.993791 13.1872 -90.3632 0.50264 1.84681 -0.628671 -11.1672 1.81736 -0.709363 -33.7128 1.95034 -0.0443507 -13.7002 1.95034 -0.0443635 87.0773 -21.142 -117.214 13.1778 -4.00026 -51.2521 7.02441 -53.2072 -11.8812 -41.593 -8.77176 14.3765 -94.8484 -37.7026 67.4389 -9.68813 7.41535 -70.8627 -3.05034 52.4005 0.00574061 20.5525 2.18986 4.0364 48.3167 -0.867172 1.24941 -5.63229 -1.48386 -1.22277 
